
[URL=http://img41.imageshack.us/i/59372565.jpg/][IMG]http://img41.imageshack.us/img41/3701/59372565.jpg[/IMG][/URL]




Format                           : BDAV
Format/Info                      : Blu-ray Video
File size                        : 3.99 GiB
Duration                         : 1h 55mn
Overall bit rate                 : 4 937 Kbps
Maximum Overall bit rate         : 35.5 Mbps

Video
ID                               : 4113 (0x1011)
Menu ID                          : 1 (0x1)
Format                           : AVC
Format/Info                      : Advanced Video Codec
Format profile                   : High@L4.0
Codec ID                         : 27
Duration                         : 1h 55mn
Bit rate mode                    : Variable
Bit rate                         : 4 219 Kbps
Maximum bit rate                 : 25.0 Mbps
Width                            : 1 920 pixels
Height                           : 1 080 pixels
Display aspect ratio             : 16:9
Frame rate                       : 23.976 fps
Color space                      : YUV
Chroma subsampling               : 4:2:0
Bit depth                        : 8 bits
Scan type                        : Progressive
Bits/(Pixel*Frame)               : 0.085
Stream size                      : 3.47 GiB (87%)
Writing library                  : x264

Audio
ID                               : 4352 (0x1100)
Menu ID                          : 1 (0x1)
Format                           : AC-3
Format/Info                      : Audio Coding 3
Mode extension                   : CM (complete main)
Codec ID                         : 129
Duration                         : 1h 55mn
Bit rate mode                    : Constant
Bit rate                         : 448 Kbps
Channel(s)                       : 6 channels
Channel positions                : Front: L C R, Side: L R, LFE
Sampling rate                    : 48.0 KHz
Bit depth                        : 16 bits
Compression mode                 : Lossy
Stream size                      : 371 MiB (9%)

